<?xml version="1.0" encoding="UTF-8" standalone="no"?>
<!-- Created with Inkscape (http://www.inkscape.org/) -->

<svg
   version="1.1"
   id="svg1"
   width="285.03955"
   height="285.03955"
   viewBox="0 0 285.03955 285.03955"
   sodipodi:docname="logo2.svg"
   inkscape:version="1.3.2 (091e20e, 2023-11-25, custom)"
   inkscape:export-filename="logo2.1_MAIN.png"
   inkscape:export-xdpi="363.73898"
   inkscape:export-ydpi="363.73898"
   xmlns:inkscape="http://www.inkscape.org/namespaces/inkscape"
   xmlns:sodipodi="http://sodipodi.sourceforge.net/DTD/sodipodi-0.dtd"
   xmlns:xlink="http://www.w3.org/1999/xlink"
   xmlns="http://www.w3.org/2000/svg"
   xmlns:svg="http://www.w3.org/2000/svg">
  <defs
     id="defs1">
    <rect
       x="262"
       y="337"
       width="378.05121"
       height="29.542807"
       id="rect37" />
    <linearGradient
       id="linearGradient36"
       inkscape:collect="always">
      <stop
         style="stop-color:#001155;stop-opacity:1;"
         offset="0"
         id="stop36" />
      <stop
         style="stop-color:#013aaf;stop-opacity:1;"
         offset="1"
         id="stop37" />
    </linearGradient>
    <rect
       x="107.94045"
       y="344.91315"
       width="232.00993"
       height="155.08685"
       id="rect3" />
    <rect
       x="107.94045"
       y="344.91315"
       width="232.00993"
       height="155.08685"
       id="rect16" />
    <linearGradient
       inkscape:collect="always"
       xlink:href="#linearGradient36"
       id="linearGradient37"
       x1="69.554688"
       y1="-431.16351"
       x2="485.54474"
       y2="-37.348877"
       gradientUnits="userSpaceOnUse"
       gradientTransform="matrix(0.57007908,0,0,0.57007908,101.98023,393.01977)" />
    <linearGradient
       inkscape:collect="always"
       xlink:href="#linearGradient36"
       id="linearGradient2"
       x1="108.7539"
       y1="342.1474"
       x2="170.41437"
       y2="342.1474"
       gradientUnits="userSpaceOnUse" />
    <linearGradient
       inkscape:collect="always"
       xlink:href="#linearGradient36"
       id="linearGradient4"
       x1="341.99823"
       y1="333.70255"
       x2="561.7229"
       y2="333.70255"
       gradientUnits="userSpaceOnUse" />
    <linearGradient
       inkscape:collect="always"
       xlink:href="#linearGradient36"
       id="linearGradient8"
       x1="101.98023"
       y1="250.50002"
       x2="387.01978"
       y2="250.50002"
       gradientUnits="userSpaceOnUse" />
  </defs>
  <sodipodi:namedview
     id="namedview1"
     pagecolor="#ffffff"
     bordercolor="#000000"
     borderopacity="0.25"
     inkscape:showpageshadow="2"
     inkscape:pageopacity="0.0"
     inkscape:pagecheckerboard="0"
     inkscape:deskcolor="#d1d1d1"
     inkscape:zoom="2"
     inkscape:cx="62.75"
     inkscape:cy="156.75"
     inkscape:window-width="1920"
     inkscape:window-height="1009"
     inkscape:window-x="-8"
     inkscape:window-y="-8"
     inkscape:window-maximized="1"
     inkscape:current-layer="g1"
     showguides="true">
    <sodipodi:guide
       position="141.44128,267.77349"
       orientation="1,0"
       id="guide5"
       inkscape:locked="false" />
    <sodipodi:guide
       position="199.6892,85.339943"
       orientation="0,-1"
       id="guide16"
       inkscape:locked="false" />
  </sodipodi:namedview>
  <g
     inkscape:groupmode="layer"
     inkscape:label="Main Group"
     id="g1"
     style="display:inline"
     transform="translate(-101.98023,-107.98023)">
    <rect
       style="display:inline;opacity:1;fill:url(#linearGradient8);stroke-width:2;stroke-linejoin:round;stroke:none;stroke-dasharray:none"
       id="rect1"
       width="285.03955"
       height="285.03955"
       x="101.98023"
       y="107.98023"
       inkscape:label="Graditent"
       ry="46" />
    <rect
       style="display:none;opacity:1;fill:url(#linearGradient37);stroke-width:54.4044;stroke-linejoin:round"
       id="rect36"
       width="285.03955"
       height="285.03955"
       x="101.98023"
       y="107.98023"
       inkscape:label="Graditent"
       ry="46" />
    <g
       id="g36"
       style="display:inline"
       inkscape:label="Shape">
      <path
         d="m 331.2207,179.16406 c -1.44271,0.0198 -2.87709,0.59099 -3.96289,1.70703 -1.41686,1.4961 -1.90566,3.64627 -1.27344,5.60743 l -24.41992,25.09765 -3.53515,3.63281 c 1.05168,1.46961 2.04016,2.98068 2.96289,4.5293 3.9598,6.48492 6.72247,13.58787 8.16406,20.99024 0.40783,1.74632 0.74081,3.50827 0.99805,5.28125 h 5.16015 34.99414 c 0.97603,1.84159 2.88842,2.99458 4.97266,2.99804 3.11416,1.1e-4 5.63878,-2.52451 5.63867,-5.63867 1.1e-4,-3.11416 -2.52451,-5.63878 -5.63867,-5.63867 -2.06034,0.0278 -3.94152,1.17731 -4.90625,2.99805 h -36.02148 c -1.56029,-8.7824 -4.84266,-17.19484 -9.66993,-24.78321 l 25.03907,-25.73633 c 2.00056,0.5847 4.16124,0.0188 5.61718,-1.47265 2.17176,-2.23194 2.12273,-5.80301 -0.10937,-7.97461 -1.11597,-1.08588 -2.56705,-1.61746 -4.00977,-1.59766 z m 0.0332,2.36914 c 0.83673,-0.0114 1.67724,0.29779 2.32421,0.92774 1.29245,1.25928 1.32152,3.32806 0.0625,4.62109 -1.25864,1.29297 -3.32749,1.32052 -4.62109,0.0625 -1.29427,-1.2584 -1.323,-3.32694 -0.0644,-4.62109 0.62947,-0.64742 1.4621,-0.97878 2.29883,-0.99024 z m 24.02734,58.56641 c 1.80595,-6.3e-4 3.27016,1.46358 3.26953,3.26953 -4.5e-4,1.80518 -1.46435,3.26821 -3.26953,3.26758 -1.80442,-4.5e-4 -3.26713,-1.46316 -3.26758,-3.26758 -6.3e-4,-1.80518 1.4624,-3.26908 3.26758,-3.26953 z"
         style="display:inline;opacity:1;fill:#1bdafe;fill-opacity:1;stroke-width:110.266;stroke-linejoin:round"
         id="path34" />
      <path
         d="m 255.79883,137.9707 c -3.11418,-1.1e-4 -5.63878,2.52449 -5.63867,5.63867 0.0278,2.06036 1.1773,3.94152 2.99804,4.90625 v 35.14454 4.96875 c 1.77457,0.28866 3.53643,0.64638 5.28125,1.07226 7.71295,1.72001 15.05031,4.74859 21.67188,8.94531 1.55119,0.91156 3.06353,1.88373 4.5332,2.91407 l 3.52149,-3.61914 24.36914,-25.04688 c 2.00055,0.5847 4.16125,0.0168 5.61718,-1.47461 2.17174,-2.23192 2.12272,-5.80106 -0.10937,-7.97265 -1.11596,-1.08588 -2.56706,-1.61746 -4.00977,-1.59766 -1.44271,0.0198 -2.87709,0.59099 -3.96289,1.70703 -1.41685,1.49609 -1.90566,3.64628 -1.27344,5.60742 l -25.11914,25.81641 c -7.64926,-4.99237 -16.2168,-8.51897 -25.23828,-10.38867 v -36.00977 c 1.84161,-0.97604 2.99459,-2.8884 2.99805,-4.97266 1.1e-4,-3.11418 -2.52449,-5.63878 -5.63867,-5.63867 z m 0,2.36914 c 1.80519,4.5e-4 3.26821,1.46434 3.26758,3.26953 -4.5e-4,1.80444 -1.46315,3.26713 -3.26758,3.26758 -1.8052,6.3e-4 -3.26908,-1.46238 -3.26953,-3.26758 -6.3e-4,-1.80596 1.46356,-3.27016 3.26953,-3.26953 z m 58.26758,23.87891 c 0.83672,-0.0115 1.67725,0.29584 2.32421,0.92578 1.29352,1.25917 1.32186,3.32966 0.0625,4.62305 -1.25863,1.29296 -3.3275,1.32051 -4.62109,0.0625 -1.29427,-1.2584 -1.32299,-3.32695 -0.0644,-4.6211 0.62947,-0.6474 1.4621,-0.97877 2.29883,-0.99023 z"
         style="display:inline;opacity:1;fill:#1bdafe;fill-opacity:1;stroke-width:110.266;stroke-linejoin:round"
         id="path35" />
      <path
         d="m 155.25391,179.16406 c -1.44271,-0.0198 -2.89381,0.51178 -4.00977,1.59766 -2.23209,2.17159 -2.28111,5.74269 -0.10937,7.97461 1.45593,1.49143 3.61663,2.05735 5.61718,1.47265 l 25.52539,26.23438 c -4.66683,7.45719 -7.84996,15.69423 -9.38476,24.28516 h -36.79297 c -0.96474,-1.82075 -2.8459,-2.97025 -4.90625,-2.99805 -3.11418,-1.1e-4 -5.63878,2.52449 -5.63867,5.63867 -1.1e-4,3.11418 2.52449,5.63878 5.63867,5.63867 2.08425,-0.003 3.99662,-1.15644 4.97266,-2.99804 h 35.76757 5.13868 c 0.25724,-1.77299 0.59021,-3.53493 0.99804,-5.28125 1.40975,-7.21799 4.07595,-14.15196 7.88477,-20.50586 0.90075,-1.56876 1.86839,-3.1007 2.90039,-4.5918 l -3.52344,-3.62109 -24.8418,-25.53125 c 0.63223,-1.96115 0.14342,-4.11134 -1.27343,-5.60743 -1.0858,-1.11604 -2.52018,-1.68723 -3.96289,-1.70703 z m -0.0332,2.36914 c 0.83673,0.0115 1.66936,0.34283 2.29883,0.99024 1.25854,1.29415 1.22982,3.36269 -0.0644,4.62109 -1.29359,1.25801 -3.36246,1.23046 -4.6211,-0.0625 -1.259,-1.29302 -1.22993,-3.36182 0.0625,-4.62109 0.64697,-0.62994 1.4875,-0.93919 2.32422,-0.92774 z m -24.02734,58.56641 c 1.80519,4.5e-4 3.26821,1.46434 3.26758,3.26953 -4.5e-4,1.80444 -1.46315,3.26713 -3.26758,3.26758 -1.8052,6.3e-4 -3.26908,-1.46238 -3.26953,-3.26758 -6.3e-4,-1.80596 1.46356,-3.27016 3.26953,-3.26953 z"
         style="display:inline;opacity:1;fill:#1bdafe;fill-opacity:1;stroke-width:110.266;stroke-linejoin:round"
         id="path33" />
      <path
         d="m 231.79883,137.9707 c -3.11416,-1.1e-4 -5.63878,2.52451 -5.63867,5.63867 0.0278,2.06035 1.17731,3.94152 2.99804,4.90625 v 35.98243 c -9.34002,1.89181 -18.19982,5.55762 -26.0664,10.78515 l -25.41407,-26.11914 c 0.63223,-1.96115 0.14343,-4.11132 -1.27343,-5.60742 -2.17161,-2.23209 -5.74073,-2.28114 -7.97266,-0.10937 -2.2321,2.1716 -2.28113,5.74072 -0.10937,7.97265 1.45594,1.49145 3.61662,2.05931 5.61718,1.47461 l 24.72266,25.4082 3.50976,3.60743 c 1.44946,-1.04894 2.94223,-2.04065 4.47461,-2.97266 6.84809,-4.4222 14.47942,-7.58571 22.51172,-9.33203 1.74589,-0.40096 3.50776,-0.73392 5.28125,-0.99805 v -4.96875 -35.05664 c 1.8416,-0.97603 2.99459,-2.88841 2.99805,-4.97266 1.1e-4,-3.11416 -2.52451,-5.63878 -5.63867,-5.63867 z m 0,2.36914 c 1.80518,4.5e-4 3.26821,1.46435 3.26758,3.26953 -4.5e-4,1.80443 -1.46316,3.26713 -3.26758,3.26758 -1.80519,6.3e-4 -3.26908,-1.46239 -3.26953,-3.26758 -6.3e-4,-1.80595 1.46357,-3.27016 3.26953,-3.26953 z m -59.39063,23.87891 c 0.83673,0.0115 1.66936,0.34282 2.29883,0.99023 1.25855,1.29416 1.22982,3.36269 -0.0644,4.6211 -1.2936,1.25801 -3.36245,1.23046 -4.6211,-0.0625 -1.25936,-1.2934 -1.23102,-3.36387 0.0625,-4.62305 0.64698,-0.62994 1.48749,-0.93724 2.32422,-0.92578 z"
         style="display:inline;opacity:1;fill:#1bdafe;fill-opacity:1;stroke-width:110.266;stroke-linejoin:round"
         id="path36" />
      <path
         d="m 243.59375,127.61719 c -3.11415,-1.1e-4 -5.63878,2.52451 -5.63867,5.63867 0.0278,2.06033 1.17732,3.94152 2.99804,4.90625 v 68.69726 c -12.31449,0.60412 -23.42728,5.39128 -31.68164,12.84766 l -47.65625,-48.98047 c 0.63223,-1.96114 0.14343,-4.11133 -1.27343,-5.60742 -2.1716,-2.23208 -5.74073,-2.28113 -7.97266,-0.10937 -2.23209,2.17159 -2.28112,5.74073 -0.10937,7.97265 1.45594,1.49144 3.61663,2.05931 5.61718,1.47461 l 47.6836,49.00781 c -5.55875,6.3091 -9.31331,14.02365 -10.44141,22.54493 H 202.25 c 2.83764,-18.93015 20.39028,-33.05636 41.17187,-33.13477 20.84697,-3.1e-4 38.49703,14.14526 41.34375,33.13477 h 7.11133 c -1.14584,-8.64561 -4.99795,-16.46086 -10.69531,-22.82032 l 47.41602,-48.73242 c 2.00055,0.5847 4.16124,0.0168 5.61718,-1.47461 2.17175,-2.23192 2.12272,-5.80106 -0.10937,-7.97265 -1.11596,-1.08588 -2.56705,-1.61746 -4.00977,-1.59766 -1.44271,0.0198 -2.87709,0.59099 -3.96289,1.70703 -1.41686,1.49609 -1.90566,3.64628 -1.27344,5.60742 l -47.41015,48.72656 c -8.18057,-7.27097 -19.1133,-11.9411 -31.21485,-12.57812 v -68.64648 c 1.8416,-0.97604 2.99459,-2.88843 2.99805,-4.97266 1.1e-4,-3.11416 -2.52452,-5.63878 -5.63867,-5.63867 z m 0,2.36914 c 1.80518,4.5e-4 3.26821,1.46435 3.26758,3.26953 -4.5e-4,1.80442 -1.46316,3.26713 -3.26758,3.26758 -1.80518,6.3e-4 -3.26908,-1.4624 -3.26953,-3.26758 -6.3e-4,-1.80595 1.46358,-3.27016 3.26953,-3.26953 z m -87.24805,35.79492 c 0.83673,0.0115 1.66936,0.34282 2.29883,0.99023 1.25854,1.29416 1.22982,3.3627 -0.0644,4.6211 -1.29359,1.25801 -3.36245,1.23046 -4.6211,-0.0625 -1.25936,-1.29339 -1.23102,-3.36388 0.0625,-4.62305 0.64697,-0.62994 1.4875,-0.93724 2.32422,-0.92578 z m 173.78321,0 c 0.83672,-0.0115 1.67724,0.29584 2.32421,0.92578 1.29353,1.25917 1.32187,3.32966 0.0625,4.62305 -1.25864,1.29296 -3.3275,1.32051 -4.62109,0.0625 -1.29427,-1.2584 -1.32299,-3.32694 -0.0644,-4.6211 0.62947,-0.64741 1.4621,-0.97877 2.29883,-0.99023 z"
         style="display:inline;opacity:1;fill:#ffffff;stroke-width:110.266;stroke-linejoin:round;fill-opacity:1"
         id="path23"
         inkscape:label="blye one" />
    </g>
    <g
       id="g37"
       style="display:inline"
       inkscape:label="Text">
      <text
         xml:space="preserve"
         id="text3"
         style="font-size:21.3333px;line-height:0;font-family:'a Autobus Omnibus';-inkscape-font-specification:'a Autobus Omnibus';letter-spacing:0.827945px;word-spacing:0px;white-space:pre;shape-inside:url(#rect3);display:inline;opacity:1;fill:#ffffff;fill-opacity:1;stroke-width:95.4331;stroke-linejoin:round"
         transform="matrix(2.7779627,0,0,2.7779627,-174.30754,-668.1112)"><tspan
           x="107.94141"
           y="351.31405"
           id="tspan2"><tspan
             style="font-family:Anton;-inkscape-font-specification:Anton"
             id="tspan1">DORTEX</tspan></tspan></text>
      <text
         xml:space="preserve"
         id="text16"
         style="font-size:21.3333px;line-height:0;font-family:'a Autobus Omnibus';-inkscape-font-specification:'a Autobus Omnibus';letter-spacing:0.827945px;word-spacing:0px;white-space:pre;shape-inside:url(#rect16);display:inline;opacity:1;fill:#1bdafe;fill-opacity:1;stroke-width:95.4331;stroke-linejoin:round"
         transform="matrix(2.7779627,0,0,2.7779627,17.413259,-668.1112)"><tspan
           x="107.94141"
           y="351.31405"
           id="tspan4"><tspan
             style="font-family:Anton;-inkscape-font-specification:Anton"
             id="tspan3">AI</tspan></tspan></text>
      <text
         xml:space="preserve"
         id="text37"
         style="font-size:49.1293px;line-height:0;font-family:Anton;-inkscape-font-specification:Anton;letter-spacing:6.95486px;word-spacing:0px;white-space:pre;shape-inside:url(#rect37);display:inline;opacity:1;fill:#ffffff;fill-opacity:1;stroke-width:95.4331;stroke-linejoin:round"
         transform="matrix(0.65134275,0,0,0.65134275,-51.467823,119.22828)"
         x="131.76312"
         y="0"><tspan
           x="338.21528"
           y="350.82409"
           id="tspan6"><tspan
             style="font-family:Poppins;-inkscape-font-specification:Poppins;text-align:center;text-anchor:middle"
             id="tspan5">PVT LTD</tspan></tspan></text>
    </g>
  </g>
</svg>
