<svg width="1920" height="1080" viewBox="0 0 1920 1080"
    xmlns="http://www.w3.org/2000/svg">
    <rect width="1920" height="1080" fill="#3d1053"/>
    <path d="M806,8.999999999999837C796.2058568128077,121.77112676097704,550.0276172500995,307.93710823475124,446.61407733228253,431.6525061049788C343.20053741446554,555.3679039752063,294.2482310120137,716.9288109231724,185.51876049309823,751.2923872213652C76.78928997418272,785.655963519558,-89.31313748182302,679.9095385611373,-205.7627457812105,637.8339638941356C-322.21235408059795,595.758389227134,-429.47268026676176,604.6445998683776,-513.1788893032267,498.8389392193549C-596.8850983396916,393.0332785703323,-745.4782356340289,154.44631307311835,-708,3.0000000000000537C-670.5217643659711,-148.44631307311823,-369.18235120218475,-319.4795878069713,-288.3094754990532,-409.83893921935476C-207.4365997959216,-500.1982906317382,-310.7747826612546,-519.532762220435,-222.76274578121067,-539.1561084743006C-134.75070890116672,-558.7794547281662,118.40579874176927,-576.6093257447844,239.7627457812104,-527.5790167425483C361.11969282065155,-478.5487077403123,411.0060607523046,-334.4040905846424,505.3789364554362,-244.97425446088437C599.7518121585678,-155.54441833712633,815.7941431871923,-103.77112676097735,806,8.999999999999837C796.2058568128077,121.77112676097704,550.0276172500995,307.93710823475124,446.61407733228253,431.6525061049788" fill="#df6688"/>
</svg>